<?xml version="1.0" encoding="UTF-8" standalone="no"?>
<svg
   width="2100"
   height="2100"
   viewBox="0 0 2100 2100"
   version="1.1"
   id="svg12"
   sodipodi:docname="favicon_1.svg"
   inkscape:version="1.2.2 (b0a8486541, 2022-12-01)"
   xmlns:inkscape="http://www.inkscape.org/namespaces/inkscape"
   xmlns:sodipodi="http://sodipodi.sourceforge.net/DTD/sodipodi-0.dtd"
   xmlns="http://www.w3.org/2000/svg"
   xmlns:svg="http://www.w3.org/2000/svg">
  <defs
     id="defs16" />
  <sodipodi:namedview
     id="namedview14"
     pagecolor="#ffffff"
     bordercolor="#666666"
     borderopacity="1.0"
     inkscape:showpageshadow="2"
     inkscape:pageopacity="0.0"
     inkscape:pagecheckerboard="0"
     inkscape:deskcolor="#d1d1d1"
     showgrid="false"
     inkscape:zoom="0.11166667"
     inkscape:cx="407.46267"
     inkscape:cy="917.91042"
     inkscape:window-width="1280"
     inkscape:window-height="652"
     inkscape:window-x="0"
     inkscape:window-y="0"
     inkscape:window-maximized="1"
     inkscape:current-layer="svg12" />
  <path
     fill-rule="evenodd"
     fill="rgb(96.484375%, 57.617188%, 10.984802%)"
     fill-opacity="1"
     d="m 1366.094,748.73482 c -54.2432,-52.72072 -85.3784,-3.5045 -119,-84.87388 72.8108,-24.09909 125.5315,23.10811 119,84.87388"
     id="path4"
     style="fill:#ff6600;stroke-width:2.30631" />
  <path
     fill-rule="evenodd"
     fill="#f6931c"
     fill-opacity="1"
     d="m 1107.4183,1198.4375 c 38.1712,-27.1171 81.3514,-48.1982 127.5676,-61.2792 -51.7297,13.5855 -94.4234,35.1711 -127.5676,61.2792"
     id="path6"
     style="stroke-width:2.30631;fill:#000000" />
  <path
     fill-rule="evenodd"
     fill="rgb(96.484375%, 57.617188%, 10.984802%)"
     fill-opacity="1"
     d="m 1104.9318,705.28437 c -159.71168,18.08108 -177.28826,-114 -119.02699,-214.95496 49.70269,-88.88289 139.59459,-151.65767 134.56759,-300.81082 15.0901,36.16216 27.1261,83.86487 36.6757,143.63964 3.5045,19.07208 5.5315,38.67568 8.5315,59.75676 51.2432,20.09009 96.4234,41.67568 134.5946,66.27928 36.1621,22.63063 67.8108,47.21622 93.9099,73.85586 50.2162,50.71171 81.3694,109.45045 92.9009,175.25226 57.7748,217.45946 219.4685,278.72073 325.4415,272.6937 -505.7208,147.65771 -390.7118,-255.63064 -707.5947,-275.71172 z m 344.0091,-541.36038 c -60.2613,97.41442 -76.8469,201.36037 -53.2523,350.02704 0,-43.7027 -162.7117,-139.62163 -218.4505,-145.13514 102.946,-171.27028 231.5226,-223.991 271.7028,-204.8919 z m 390.7117,1028.50451 c 123.018,-122.5405 198.8739,-292.28827 198.8739,-480.1171 0,-375.13515 -303.8379,-678.972997 -679.0001,-678.972997 H 493.74263 V 778.09518 C 549.48137,715.33842 631.84173,660.07716 741.83272,612.38347 783.5084,443.6267 882.44534,272.38345 1038.6255,96.626693 1096.8778,322.11319 979.85976,391.924 919.103,497.36544 c -58.25225,102.95496 -39.66667,236.54055 125.5405,215.45947 -8.027,1.4955 -16.072,3.01802 -24.0991,5.02703 -9.5225,2.51351 -19.5855,5.02702 -29.12608,7.51351 -25.0991,7.03604 -49.72973,16.08108 -72.81081,25.63063 -1.00901,0.50451 -1.50451,0.99099 -2.01802,0.99099 -96.42343,47.20721 -170.24325,103.45947 -227.4865,167.73875 -7.54955,8.54955 -15.08108,17.59459 -22.10811,26.63063 -5.52252,6.5045 -10.54054,13.05405 -15.06306,20.09009 -4.51351,6.01802 -8.54054,12.54955 -13.05405,18.56757 -49.72973,75.82879 -78.85586,156.69369 -82.36938,229.51349 l 0.51352,-0.5045 c 10.03603,-17.5766 204.8919,-340.99998 538.86489,-223.47746 -7.027,-56.25225 -75.3424,-82.86487 -129.56758,-84.86487 218.93698,-31.13513 212.91888,127.05403 422.36038,189.32433 35.1441,10.5315 199.8649,40.1712 294.7928,0 75.3153,-35.6577 117.5045,-96.43243 127.0541,-110.47748 -32.6577,68.27028 -93.4325,177.77478 -351.5586,144.63068 -16.0721,-2.0091 -105.4595,-9.5496 -130.5766,-7.0361 -7.036,0.5045 -13.5405,0.5045 -20.0901,1.5045 -9.5225,1.009 -18.5676,2 -27.1261,3.5225 -8.018,1.5046 -16.0451,2.4955 -23.5856,4.4955 -7.5225,1.5226 -15.0631,3.5316 -22.5856,5.5406 -46.2162,13.054 -89.4144,34.1441 -127.5856,61.2703 -0.991,0.4955 -1.4955,1.009 -2,1.5045 -235.02701,186.3153 -86.6757,671.6937 160.7027,866.6937 h 386.3064 c -54.1982,-91.6487 -296.919,-478.6397 -405.3334,-649.9009 -6.6667,-10.5496 -147.1892,-13.4054 -147.1892,-25.4505 h 259.6216 c 187.3424,0 357.0811,-75.8288 480.1262,-198.8739"
     id="path8"
     style="fill:#ff6600;stroke-width:2.30631" />
  <path
     fill-rule="evenodd"
     fill="rgb(96.484375%, 57.617188%, 10.984802%)"
     fill-opacity="1"
     d="M 854.6075,1317.7619 H 493.7156 V 839.37446 L 61.481351,1587.9961 H 422.11199 v 478.6487 L 854.6075,1317.7619"
     id="path10"
     style="fill:#ff6600;stroke-width:2.30631" />
</svg>
