<?xml version="1.0" encoding="UTF-8" standalone="no"?>
<svg
   width="1024"
   height="1024"
   viewBox="0 0 1024 1024"
   version="1.1"
   id="svg4613"
   sodipodi:docname="favicon.svg"
   inkscape:version="1.2.2 (b0a8486541, 2022-12-01)"
   xmlns:inkscape="http://www.inkscape.org/namespaces/inkscape"
   xmlns:sodipodi="http://sodipodi.sourceforge.net/DTD/sodipodi-0.dtd"
   xmlns="http://www.w3.org/2000/svg"
   xmlns:svg="http://www.w3.org/2000/svg">
  <defs
     id="defs4617" />
  <sodipodi:namedview
     id="namedview4615"
     pagecolor="#ffffff"
     bordercolor="#666666"
     borderopacity="1.0"
     inkscape:showpageshadow="2"
     inkscape:pageopacity="0.0"
     inkscape:pagecheckerboard="0"
     inkscape:deskcolor="#d1d1d1"
     showgrid="false"
     inkscape:zoom="0.40326742"
     inkscape:cx="695.56822"
     inkscape:cy="462.47227"
     inkscape:window-width="1280"
     inkscape:window-height="652"
     inkscape:window-x="0"
     inkscape:window-y="0"
     inkscape:window-maximized="1"
     inkscape:current-layer="svg4613" />
  <path
     style="fill:#552200;stroke:#000000;stroke-width:1.08081px;stroke-linecap:butt;stroke-linejoin:miter;stroke-opacity:1"
     d="m 156.34002,52.893476 c 0,0 -59.696568,19.898859 -75.805167,94.756484 -9.862956,45.83373 -9.47566,126.02613 -3.790273,158.24333 5.685398,32.21721 31.26965,116.55047 44.53556,133.60664 13.26589,17.05616 20.84642,36.00746 20.84642,36.00746 l -15.16103,28.42695 c 0,0 -39.797728,18.9513 -51.168513,30.32207 -11.370775,11.37077 -22.741552,34.11233 -22.741552,34.11233 l 39.797725,3.79027 c 0,0 -53.063633,34.11234 -68.22467,68.22466 -15.1610378,34.11234 -13.265907,38.85017 -13.265907,38.85017 l 26.531814,-0.94757 -13.265907,24.63667 -7.580519,19.89887 73.910053,-0.94757 c 0,0 -43.587978,36.00753 -43.587978,49.27344 0,13.2659 81.490564,17.05617 125.078554,36.00746 43.58798,18.9513 118.61154,66.9305 175.46543,112.41361 56.85389,45.48311 70.11979,64.4344 162.98115,66.32951 92.86135,1.8952 125.07856,-20.8464 178.14217,-70.11977 53.06364,-49.27337 106.12727,-106.12726 172.45681,-117.49804 66.32954,-11.37077 111.81265,-22.74155 111.81265,-22.74155 0,0 -9.47565,-39.79772 -34.11234,-49.27337 -24.63668,-9.47565 72.015,-7.58053 72.015,-7.58053 0,0 0,-19.83151 -28.42701,-36.88768 -28.42694,-17.05616 29.67181,-6.47037 29.67181,-6.47037 0,0 -14.51077,-43.81791 -35.3572,-66.55946 -20.84642,-22.74156 -49.27337,-37.9026 -49.27337,-37.9026 h 36.00746 c 0,0 -24.63669,-41.69287 -51.16849,-54.95878 -26.53182,-13.26592 -39.79773,-37.9026 -39.79773,-37.9026 0,0 17.05617,-18.9513 36.00747,-53.06362 18.95129,-34.11234 50.62485,-104.30693 50.62485,-168.74133 0,-64.43441 -18.95129,-155.40063 -28.42694,-172.456803 C 921.5947,66.685603 896.95802,42.048913 859.05542,38.258651 821.15283,34.468389 735.87199,72.370981 705.54992,97.00767 675.22784,121.64436 625.95447,208.82033 625.95447,208.82033 l -11.37078,-56.85391 c 0,0 -36.00746,35.05991 -51.1685,61.59173 -15.16104,26.53181 -51.16851,-2.8427 -51.16851,-2.8427 0,0 -32.59677,29.58928 -41.69284,15.16104 -27.47939,-43.58799 -55.90639,-58.74902 -55.90639,-58.74902 l -15.16104,50.22093 c 0,0 -51.16849,-84.33327 -96.6516,-120.34073 C 242.2582,67.562942 219.69651,44.723644 156.34002,52.893476 Z"
     id="path6032"
     sodipodi:nodetypes="csssccsccscccccsssssscscscsccscsssssccscscccc" />
  <path
     fill-rule="nonzero"
     fill="#fefefe"
     fill-opacity="1"
     d="m 212.67982,73.925386 c 67.25424,24.317341 122.18257,74.745394 158.04167,135.998374 7.85649,13.28163 13.85226,27.31379 20.8992,40.98616 7.58671,-3.32252 16.2219,-5.21711 20.92742,-12.62109 9.68361,-14.39195 10.49597,-31.27439 12.11508,-47.93758 14.57185,20.02506 24.58441,42.20891 33.1605,65.33163 19.51908,-5.06531 37.56811,-12.98088 55.04922,-22.91191 18.11084,7.77221 35.94904,15.74405 54.86661,21.50082 8.36812,-21.68073 16.97518,-42.84417 30.82744,-61.70554 2.45394,15.16779 3.03014,31.51052 11.56974,44.82309 4.2614,7.08074 12.0252,8.66329 19.1003,11.87336 17.81004,-41.01707 42.16109,-78.55704 74.86632,-109.25519 32.05856,-30.28776 71.42008,-56.280416 113.96911,-68.749703 15.62312,-4.137693 33.43316,-8.666089 48.60092,-0.511596 21.10731,11.209995 36.10357,31.634199 46.17796,52.831419 21.31529,44.93832 24.798,99.93133 20.41578,148.83589 -6.86711,59.51861 -25.18592,122.41595 -60.68514,171.37952 -5.15806,-8.87409 -12.71385,-17.71727 -15.47134,-27.63985 1.85801,-8.3035 6.06032,-16.19096 9.20294,-24.10652 12.05327,-28.99196 22.43124,-58.85525 30.5267,-89.20203 13.96754,-52.68245 11.60073,-108.68741 -1.97887,-161.16182 -4.0815,-13.90848 -8.66332,-30.27932 -21.65259,-38.49848 -11.93242,-7.763777 -28.74741,-4.013998 -41.49214,-0.208 -62.12995,19.58094 -111.20601,73.4552 -127.52058,136.24011 -4.34572,17.81004 -9.41105,37.33476 -8.21638,55.71261 15.20431,18.79668 37.33197,33.04528 56.78922,47.2208 -16.37084,-1.52633 -32.74169,-2.81375 -49.14068,-3.59801 10.36955,5.72588 21.02011,10.79398 31.09447,17.09048 36.93565,22.45649 67.28241,53.88269 90.30954,90.34605 -19.34482,-5.39698 -38.74302,-11.51356 -58.50381,-15.08344 36.04451,19.30547 75.47062,36.008 98.91656,71.47631 -13.75951,-1.591 -27.49647,-3.29443 -41.37688,-3.83411 21.79598,10.46229 44.94393,17.60203 66.80733,27.73263 15.97456,7.40399 30.12755,17.65825 42.72051,29.91953 -19.96883,-0.47223 -39.72684,-0.53972 -59.48766,2.90929 45.15479,23.2998 88.15075,58.28745 114.27267,102.42743 -23.99126,-4.10955 -47.25731,-5.60495 -71.59998,-3.98585 26.11353,10.21773 49.14068,24.67429 67.85021,45.75067 -37.84351,-0.3036 -77.71656,2.69848 -114.00004,14.15586 28.75582,9.38283 53.25023,23.47124 73.96961,45.6579 -60.23819,5.72585 -118.37384,18.83043 -171.6831,48.36763 -55.32189,30.91182 -96.66229,72.88741 -141.04118,116.99091 10.22615,-16.60702 22.00676,-32.202 32.44093,-48.66 29.95606,-44.43518 56.94096,-89.2892 92.76909,-129.17063 10.70121,-12.05325 22.33561,-23.08338 33.70023,-34.48167 -47.73238,19.7018 -89.52531,51.128 -116.18693,95.97916 -13.78764,22.36655 -21.73136,46.11326 -37.26732,67.67314 -20.74746,29.08184 -52.50251,49.53137 -87.5211,56.54745 -25.72562,5.18894 -53.52008,4.61555 -79.0068,-1.77086 C 442.77122,927.63547 417.34632,911.5654 398.99657,889.25785 377.31869,863.62219 367.4833,833.48622 347.48631,805.84353 319.27023,765.3943 279.03177,737.27369 233.818,718.6485 c 62.21425,65.57896 115.2874,138.37641 165.02681,213.63622 -2.81658,-2.52141 -5.57408,-5.09902 -8.24443,-7.76655 -36.8794,-38.31859 -77.02793,-74.50934 -122.69145,-102.0649 -36.57866,-22.87809 -77.53666,-38.91727 -119.54317,-48.3648 -22.90631,-5.42792 -46.14422,-7.94653 -69.472152,-10.85299 11.724412,-12.74479 24.857072,-24.73056 40.300302,-32.76984 9.89165,-5.24521 20.1459,-8.57896 30.55197,-12.59295 -21.91681,-6.08845 -43.92637,-10.70682 -66.593687,-12.64916 -14.361079,-1.2593 -28.693956,-0.87144 -43.085917,-1.71466 18.560508,-21.02017 42.155474,-35.02137 67.673064,-46.02621 -24.587147,-1.13559 -47.974084,0.4835 -72.229635,4.4413 26.023602,-44.22713 67.462295,-79.96813 113.426625,-102.3347 -19.33921,-3.80599 -38.65027,-3.5024 -58.228349,-3.38996 11.094679,-10.76306 23.237889,-20.20496 37.388129,-26.70946 22.96811,-10.25427 47.25454,-16.61539 69.53115,-28.75581 -13.73136,0.8995 -27.28291,3.03019 -40.95526,4.28949 22.24572,-37.05928 58.8862,-54.3943 95.40578,-73.99771 -19.60903,3.95215 -38.85827,10.24864 -57.83766,16.66599 13.85225,-20.48042 28.9638,-39.90956 46.86379,-57.02812 22.60826,-21.91964 48.93268,-38.55469 77.26683,-52.01905 -17.38844,1.1075 -34.65877,3.2663 -52.05003,4.46937 18.19798,-12.38494 35.71005,-25.30959 51.78018,-40.3565 3.68794,-4.14332 8.30625,-6.74905 7.55576,-12.98933 -2.09696,-36.54767 -12.56206,-73.72784 -31.57233,-105.1456 -23.14803,-37.36286 -59.75758,-67.73777 -101.67415,-81.46633 -12.6211,-3.777905 -28.87385,-7.583901 -40.71627,0.1799 -12.50303,7.91555 -17.50934,21.82405 -21.61889,35.3165 -10.8811,38.80206 -15.17057,79.58304 -11.93238,119.75682 1.64997,20.20496 4.70828,40.29748 8.48615,60.2101 6.92612,36.24413 20.44673,70.60492 38.28771,102.83502 -4.91636,7.76661 -9.77364,15.56695 -14.78269,23.2436 -37.11829,-47.01842 -56.277587,-109.31985 -61.103988,-168.42245 -3.83692,-47.85326 -0.12079,-100.2321 18.709528,-144.90338 10.19246,-23.66241 26.71507,-48.848339 50.4,-60.654253 17.27033,-8.730735 37.30098,-2.310558 54.54048,3.207289"
     id="path4573"
     style="fill:#ff6600;stroke-width:0.719599" />
  <path
     fill-rule="nonzero"
     fill="#fefefe"
     fill-opacity="1"
     d="m 218.3157,166.78442 c 13.52339,3.0864 25.66659,9.23108 35.35023,19.27737 22.39748,23.26323 32.74451,55.40903 31.39246,87.45924 -6.77436,-7.55577 -14.42009,-20.05599 -25.12411,-21.89151 -9.74543,-1.58819 -16.43266,6.65628 -20.59848,14.30763 -9.2367,17.09044 -8.09547,33.82109 -10.07437,52.50253 -9.0568,-23.87041 -9.4756,-48.57286 -0.84043,-72.62317 4.94725,-15.44325 16.01107,-32.07833 12.23316,-48.62908 -3.11738,-14.12774 -12.98089,-20.68844 -22.33846,-30.40301"
     id="path4575"
     style="fill:#ff6600;stroke-width:0.719599" />
  <path
     fill-rule="nonzero"
     fill="#fefefe"
     fill-opacity="1"
     d="m 804.12742,166.38809 c -9.20302,9.57121 -18.52966,16.49172 -19.33639,30.97923 -0.3598,17.14668 8.84312,34.47325 11.27738,51.59463 4.28111,24.55908 0.26424,48.90171 -14.54372,69.26128 4.58464,-19.81988 8.12362,-40.92433 0.0871,-60.38157 -3.03015,-6.95987 -8.99496,-12.17695 -17.02581,-10.31892 -12.38492,3.0583 -20.21337,17.05952 -27.80008,26.35807 -2.3949,-31.56953 7.65134,-63.59163 29.14372,-87.01511 10.645,-11.26621 22.90629,-17.77913 38.19776,-20.47761"
     id="path4577"
     style="fill:#ff6600;stroke-width:0.719599" />
  <path
     fill-rule="nonzero"
     fill="#2f1c1d"
     fill-opacity="1"
     d="m 461.44981,328.11769 c 23.14801,13.3491 38.85829,33.58217 51.7239,56.55309 12.86282,-23.08615 27.28289,-43.83924 51.24047,-56.55309 -9.80732,27.35035 -21.91968,53.85459 -31.78319,81.19932 -7.46582,19.51346 -13.04271,39.60598 -19.51909,59.45115 -9.80452,-32.94972 -21.07638,-65.27259 -34.32993,-97.02203 -5.66683,-14.54375 -12.74472,-28.7277 -17.33216,-43.62844"
     id="path4583"
     style="fill:#552200;stroke-width:0.719599" />
  <path
     fill-rule="nonzero"
     fill="#2f1c1d"
     fill-opacity="1"
     d="m 412.87697,376.96321 c 28.96661,4.41035 50.64449,26.62512 55.43996,55.38092 -21.43897,-13.64424 -42.0656,-33.73678 -55.43996,-55.38092"
     id="path4585"
     style="fill:#552200;stroke-width:0.719599" />
  <path
     fill-rule="nonzero"
     fill="#2f1c1d"
     fill-opacity="1"
     d="m 612.83519,376.33075 c -13.64138,22.12763 -33.40221,41.23351 -54.86932,55.73793 2.67042,-12.28941 6.47638,-23.85919 14.78271,-33.57377 10.19526,-12.44959 24.40731,-19.42912 40.08661,-22.16416"
     id="path4587"
     style="fill:#552200;stroke-width:0.719599" />
  <path
     fill-rule="nonzero"
     fill="#2f1c1d"
     fill-opacity="1"
     d="m 388.80138,512.9672 c 22.51829,7.94369 39.12813,25.03413 49.35425,46.29037 15.46856,32.2695 20.32865,70.31262 18.25981,105.75282 -3.33095,50.43085 -19.19023,102.27845 -34.75152,150.24971 -6.50728,-33.75919 -15.83117,-65.905 -32.38192,-96.18431 -11.30552,-20.39613 -26.68414,-36.6433 -43.20675,-52.77805 -26.41435,-26.41427 -57.77868,-49.01699 -82.39395,-76.48533 -7.31687,-8.35971 -14.45103,-17.89438 -12.98371,-29.71154 1.86081,-12.86564 13.13547,-20.60132 24.70804,-24.25834 17.45025,-5.27328 37.47818,-3.89873 55.16732,-0.35979 32.77265,6.98797 64.85657,25.12972 85.33415,51.99098 6.56636,8.33437 11.21287,17.81003 17.4194,26.32433 1.6191,-23.59778 -5.18624,-48.27211 -17.14954,-68.57264 -7.22683,-12.64916 -17.72009,-21.64414 -27.37558,-32.25821"
     id="path4589"
     style="fill:#552200;stroke-width:0.719599" />
  <path
     fill-rule="nonzero"
     fill="#2f1c1d"
     fill-opacity="1"
     d="m 635.89328,513.89482 c -10.72935,12.41307 -21.7397,23.66237 -28.81486,38.74303 -10.25426,20.20774 -13.52052,42.0599 -13.72855,64.51926 8.5424,-16.21907 17.14664,-31.74662 30.58289,-44.58698 27.34473,-26.68132 66.47006,-40.98615 104.49345,-40.02199 13.3407,0.56781 28.66029,2.96272 38.76274,12.49739 6.98799,6.39205 10.25426,16.10662 7.22691,25.25338 -3.68512,11.18185 -13.39969,21.01171 -21.40804,29.40797 -34.21185,34.12463 -78.647,66.59086 -106.73938,106.14068 -23.05528,33.2814 -32.65457,69.98088 -40.29748,109.17084 -14.80803,-42.72332 -27.97716,-87.04319 -33.2814,-132.07436 -4.67738,-41.70853 -0.59598,-85.18799 16.96955,-123.619 9.38293,-20.36518 24.91889,-37.41907 46.23417,-45.43022"
     id="path4591"
     style="fill:#552200;stroke-width:0.719599" />
  <path
     fill-rule="nonzero"
     fill="#fefefe"
     fill-opacity="1"
     d="m 307.33778,575.98821 c 19.12843,-0.68303 33.52039,8.21917 51.20955,13.31256 15.50229,5.28458 27.67636,17.63014 39.87868,28.13183 -11.75255,0.83199 -23.80582,1.64716 -35.56111,0.56775 -8.6633,-2.00696 -16.75877,-6.98795 -24.91607,-10.58594 -13.34069,-6.08844 -22.69547,-19.48532 -30.61105,-31.4262"
     id="path4593"
     style="stroke-width:0.719599" />
  <path
     fill-rule="nonzero"
     fill="#fefefe"
     fill-opacity="1"
     d="m 718.40812,575.75211 c -6.14471,8.03928 -12.0252,16.93868 -19.27737,23.95477 -6.95988,6.68435 -14.99627,9.59367 -23.45156,13.82412 -13.19174,7.94372 -31.77759,4.26138 -46.73738,4.23044 10.54946,-10.67867 23.11146,-22.70389 37.4191,-27.92097 17.81004,-5.57688 32.64613,-14.50436 52.04721,-14.08836"
     id="path4595"
     style="stroke-width:0.719599" />
  <path
     fill-rule="nonzero"
     fill="#2f1c1d"
     fill-opacity="1"
     d="m 490.41642,646.6887 c -1.17214,36.91033 -10.43696,73.07012 -28.12613,105.54479 9.20577,-35.23216 19.33921,-70.18893 28.12613,-105.54479"
     id="path4597"
     style="stroke-width:0.719599" />
  <path
     fill-rule="nonzero"
     fill="#2f1c1d"
     fill-opacity="1"
     d="m 537.60909,648.81943 0.0899,0.33166 c 7.19599,33.76489 17.1242,66.71458 25.24781,100.23214 -15.80309,-30.45928 -26.71787,-66.05123 -25.33776,-100.5638"
     id="path4599"
     style="stroke-width:0.719599" />
  <path
     fill-rule="nonzero"
     fill="#2f1c1d"
     fill-opacity="1"
     d="m 480.28025,809.56241 c 21.73689,-3.23541 46.11327,-3.35909 67.91203,-0.51164 15.98574,2.34151 31.15357,9.23675 38.8611,24.19648 11.66533,24.37638 3.53336,57.83768 -20.24149,71.95978 -19.28017,11.60352 -44.55326,13.97316 -66.50379,11.96613 -15.76935,-1.65278 -33.79016,-6.51007 -45.51175,-17.75378 -16.28373,-15.26059 -20.21055,-41.79575 -13.10454,-62.27336 6.2965,-16.8206 21.64695,-24.88512 38.58844,-27.58361"
     id="path4601"
     style="fill:#552200;stroke-width:0.719599" />
  <path
     fill-rule="nonzero"
     fill="#fefefe"
     fill-opacity="1"
     d="m 458.93123,859.66159 c 6.83616,3.83971 11.00479,7.97739 15.29424,14.54372 -5.63869,-4.34852 -10.70401,-9.11586 -15.29424,-14.54372"
     id="path4605"
     style="stroke-width:0.719599" />
  <path
     fill-rule="nonzero"
     fill="#fefefe"
     fill-opacity="1"
     d="m 571.94182,859.45355 c -5.34076,5.66684 -11.30553,10.46513 -17.7819,14.7827 5.09618,-6.35836 10.70122,-10.79395 17.7819,-14.7827"
     id="path4607"
     style="stroke-width:0.719599" />
</svg>
